# xmcd
#
# Track frame offsets: 
#        199
#        14051
#        25464
#        38060
#        48801
#        59507
#        70125
#        79932
#        91258
#        104277
#        115730
#        126071
#
# Disc length: 1837 seconds
#
# Revision: 0
# Processed by: cddbd v1.5.1PL0 Copyright (c) Steve Scherf et al.
# Submitted via: ExactAudioCopy v0.95a5
#
DISCID=9b072b0c
DTITLE=Patsy Cline - Walking after midnight
DYEAR=1996
DGENRE=Country
TTITLE0=A church, a courtroom and a goodby
TTITLE1=Crazy dreams
TTITLE2=Finger prints
TTITLE3=Honky tonk merry-go-round
TTITLE4=I can see an angel walking
TTITLE5=I don't wanna
TTITLE6=I'm blue again
TTITLE7=Just out of reach
TTITLE8=Life's railway to heaven
TTITLE9=That wonderful someone
TTITLE10=Walkin' dream
TTITLE11=Walking after midnight
EXTD=
EXTT0=
EXTT1=
EXTT2=
EXTT3=
EXTT4=
EXTT5=
EXTT6=
EXTT7=
EXTT8=
EXTT9=
EXTT10=
EXTT11=
PLAYORDER=
